<svg height="512" width="512" xmlns="http://www.w3.org/2000/svg"><path d="m256.0109558 34.2970886-256.0109558 443.4058228h512zm-58.2936706 390.4943238v-169.2882233l5.2516632-23.4995728 146.6161652 84.6187286 17.7284851 16.3144531-146.6291352 84.656891zm7.4602203-202.6649323 7.102066-31.7524567 104.7366943 96.3058472zm-17.1089783 205.6917267-31.0465393 9.724762 31.0465393-138.8571167zm186.6941681-88.0347901 23.9541016 22.0239868-135.8032532 42.5494385zm-158.0463562-161.7286376 10.0673218-26.6565094 118.7736206 145.129837zm-72.5767822 261.8053894-28.122818 4.5983887 66.3111115-175.4396973zm263.0221863-68.0525208 18.045105 22.0421448-185.083252 30.2972717zm-176.2705536-238.2628174 10.4651489-21.3288345 126.7918243 189.0476685zm-132.3927307 316.2866211-23.7042313 1.6001587 100.3414536-204.3481293zm340.1172638-43.4940796 13.2313232 19.728302-227.1217804 15.2789612zm-54.8501282-112.1119995-137.3166504-204.7574463 9.5620117-16.549881zm-222.556366-57.1202392-108.65625 221.2924805h-19.1095352zm61.7256775 221.2924804 246.0611267-16.5531921 9.5601501 16.5531921z"/></svg>